<mxfile host="app.diagrams.net" agent="Mozilla/5.0 (Windows NT 10.0; Win64; x64) AppleWebKit/537.36 (KHTML, like Gecko) Chrome/134.0.0.0 Safari/537.36" version="26.0.16">
  <diagram name="Page-1" id="fCxpitwIKcDhB8XpXCDr">
    <mxGraphModel>
      <root>
        <mxCell id="0" />
        <mxCell id="1" parent="0" />
        <mxCell id="2" value="Alice" style="shape=umlLifeline;perimeter=lifelinePerimeter;whiteSpace=wrap;container=1;dropTarget=0;collapsible=0;recursiveResize=0;outlineConnect=0;portConstraint=eastwest;newEdgeStyle={&quot;edgeStyle&quot;:&quot;elbowEdgeStyle&quot;,&quot;elbow&quot;:&quot;vertical&quot;,&quot;curved&quot;:0,&quot;rounded&quot;:0};size=65;" vertex="1" parent="1">
          <mxGeometry width="150" height="538" as="geometry" />
        </mxCell>
        <mxCell id="3" value="Bob" style="shape=umlLifeline;perimeter=lifelinePerimeter;whiteSpace=wrap;container=1;dropTarget=0;collapsible=0;recursiveResize=0;outlineConnect=0;portConstraint=eastwest;newEdgeStyle={&quot;edgeStyle&quot;:&quot;elbowEdgeStyle&quot;,&quot;elbow&quot;:&quot;vertical&quot;,&quot;curved&quot;:0,&quot;rounded&quot;:0};size=65;" vertex="1" parent="1">
          <mxGeometry x="274" width="150" height="538" as="geometry" />
        </mxCell>
        <mxCell id="4" value="Charlie" style="shape=umlLifeline;perimeter=lifelinePerimeter;whiteSpace=wrap;container=1;dropTarget=0;collapsible=0;recursiveResize=0;outlineConnect=0;portConstraint=eastwest;newEdgeStyle={&quot;edgeStyle&quot;:&quot;elbowEdgeStyle&quot;,&quot;elbow&quot;:&quot;vertical&quot;,&quot;curved&quot;:0,&quot;rounded&quot;:0};size=65;" vertex="1" parent="1">
          <mxGeometry x="602" width="150" height="538" as="geometry" />
        </mxCell>
        <mxCell id="5" value="Hello Bob, how are you?" style="verticalAlign=bottom;edgeStyle=elbowEdgeStyle;elbow=vertical;curved=0;rounded=0;endArrow=block;" edge="1" parent="1" source="2" target="3">
          <mxGeometry relative="1" as="geometry">
            <Array as="points">
              <mxPoint x="221" y="109" />
            </Array>
          </mxGeometry>
        </mxCell>
        <mxCell id="6" value="I am good, thanks for asking." style="verticalAlign=bottom;edgeStyle=elbowEdgeStyle;elbow=vertical;curved=0;rounded=0;dashed=1;dashPattern=2 3;endArrow=block;" edge="1" parent="1" source="3" target="2">
          <mxGeometry relative="1" as="geometry">
            <Array as="points">
              <mxPoint x="224" y="163" />
            </Array>
          </mxGeometry>
        </mxCell>
        <mxCell id="7" value="Hey Charlie, long time no see!" style="verticalAlign=bottom;edgeStyle=elbowEdgeStyle;elbow=vertical;curved=0;rounded=0;endArrow=block;" edge="1" parent="1" source="2" target="4">
          <mxGeometry relative="1" as="geometry">
            <Array as="points">
              <mxPoint x="385" y="217" />
            </Array>
          </mxGeometry>
        </mxCell>
        <mxCell id="8" value="Yeah, it has been a while. How are you?" style="verticalAlign=bottom;edgeStyle=elbowEdgeStyle;elbow=vertical;curved=0;rounded=0;dashed=1;dashPattern=2 3;endArrow=block;" edge="1" parent="1" source="4" target="2">
          <mxGeometry relative="1" as="geometry">
            <Array as="points">
              <mxPoint x="388" y="271" />
            </Array>
          </mxGeometry>
        </mxCell>
        <mxCell id="9" value="Let&#39;s catch up soon." style="verticalAlign=bottom;edgeStyle=elbowEdgeStyle;elbow=vertical;curved=0;rounded=0;endArrow=block;" edge="1" parent="1" source="2" target="3">
          <mxGeometry relative="1" as="geometry">
            <Array as="points">
              <mxPoint x="221" y="325" />
            </Array>
          </mxGeometry>
        </mxCell>
        <mxCell id="10" value="Sure, let&#39;s plan something." style="verticalAlign=bottom;edgeStyle=elbowEdgeStyle;elbow=vertical;curved=0;rounded=0;dashed=1;dashPattern=2 3;endArrow=block;" edge="1" parent="1" source="3" target="4">
          <mxGeometry relative="1" as="geometry">
            <Array as="points">
              <mxPoint x="522" y="379" />
            </Array>
          </mxGeometry>
        </mxCell>
        <mxCell id="11" value="Sounds good, I&#39;ll check my schedule." style="verticalAlign=bottom;edgeStyle=elbowEdgeStyle;elbow=vertical;curved=0;rounded=0;endArrow=block;" edge="1" parent="1" source="4" target="3">
          <mxGeometry relative="1" as="geometry">
            <Array as="points">
              <mxPoint x="525" y="433" />
            </Array>
          </mxGeometry>
        </mxCell>
      </root>
    </mxGraphModel>
  </diagram>
</mxfile>
